<svg xmlns="http://www.w3.org/2000/svg" xmlns:xlink="http://www.w3.org/1999/xlink" xmlns:inkscape="http://www.inkscape.org/namespaces/inkscape" version="1.1" width="319.854" height="288.742" viewBox="0 0 319.854 288.742">
<g inkscape:groupmode="layer" inkscape:label="Layer 1">
<path transform="matrix(1,0,0,-1,28.1865,240.2026)" d="M0 0 135.101 204.27H169.888V97.079L183.236 79.685V165.034L218.832 195.775V65.124L134.697 64.719V151.281L34.787 0Z" fill="#030404"/>
<path transform="matrix(1,0,0,-1,212.2314,66.6747)" d="M0 0 34.787 30.742H0Z" fill="#e09126"/>
<text fill="#231f20" xml:space="preserve" transform="matrix(1 0 -0 1 0 288.742)" font-size="47.4515" font-family="NewYork"><tspan y="-66.8228" x="105.146 134.61339 160.66426 183.86804 213.33542 241.04709 264.67796">APPAREL</tspan></text>
<text fill="#e09126" xml:space="preserve" transform="matrix(1 0 -0 1 0 288.742)" font-size="16.6587" font-family="MyriadPro"><tspan y="-49.6123" x="113.9683 120.16534 126.81216 140.43898 151.38375 162.24521 173.87299 187.4998 199.0776 210.02237 216.66919 230.81243 244.43924 257.29975"> INTERNATIONAL</tspan></text>
</g>
</svg>
